<svg xmlns="http://www.w3.org/2000/svg" width="1960.874" height="334.844" viewBox="0 0 1960.874 334.844">
  <defs>
    <style>
      .cls-1 {
        fill: #10b981;
        fill-rule: evenodd;
      }
    </style>
  </defs>
  <path id="logo" class="cls-1" d="M80,139H279c38.607-.006,75.362-2.251,97,14,18.056,13.561,36.5,47.069,25,80-6.166,17.658-19.6,32.1-29,47L295,400c-16.3,25.851-28.919,55.983-59,68-61.743,24.666-89.83-35.927-110-68L58,294C36.716,260.161-5.782,214.728,32,166,44.438,149.959,59.49,147.795,80,139Zm-1,23c-20.769,10.371-49.175,24.763-38,62,7.909,26.353,30.981,49.806,45,72l86,136c11.222,14.815,43.143,23.574,64,11,21.934-13.223,35.353-47.282,49-69l90-138c12.03-20.167,4.419-51.713-10-63-18.261-14.294-54.153-11-87-11H79Zm129,37c45.717,4.716,90.1,41.761,68,95-5.4,13.019-16.588,25.871-28,33l-14,6c-8.2,8.014-11.255,50.239-28,44-12.573-8.97-10.156-33.289-21-44-11.676-11.532-26.231-11.251-37-29-22.682-37.381-.557-81.213,28-97C185.375,201.817,196.817,203.258,208,199Zm1377,8c13.45-.272,35.13-2.586,45,2v87q16.995-20.5,34-41c11.47-.333,45.94-4.053,51,3,0.75,5.148-36.15,47.91-43,53,9.15,14.432,48.67,60.889,46,74-11.88.322-44.94,4.392-52-2q-16.5-24.5-33-49c-0.67,1-1.33,2-2,3-4.94,13.044,2.37,36.086-3,48-14.21.332-36.77,2.465-46-3V210ZM199,211c-22.755,11-40.891,16.814-48,43-11.415,42.05,26.265,80.823,69,72C290.578,311.429,285.355,208.834,199,211Zm277,3h49l21,98h1q13-48.995,26-98h49l24,98h1q11-48.995,22-98c11.207-.336,44.074-3.88,49,3,3.412,10.764-7.763,34.274-11,45q-16,61.494-32,123H621l-24-90h-2l-23,90H518v-2q-22.5-82.492-45-165Zm645,37c0.22,25.163,4.95,120.233-3,134-14.65.33-38.41,2.674-48-3V251c-14.95.272-39.79,3.186-51-2-0.27-10.97-1.6-27.333,2-35h110c12.7,0,31.73-2.186,41,2,0.27,10.97,1.6,27.333-2,35h-49Zm-347,0c76.576-1.6,85,10.373,85,86,0,14.361,2.98,37.291-2,48-13.451.272-35.128,2.586-45-2v-7c-29.95,19.6-94.15,17.032-82-40,6.621-31.079,44.67-38.988,82-39v-1c-13.318-27.828-52.862,2.414-71-5V257Zm559,0c76.58-1.6,85,10.373,85,86,0,14.361,2.98,37.291-2,48-13.45.272-35.13,2.586-45-2v-7c-29.95,19.6-94.15,17.032-82-40,6.62-31.079,44.67-38.988,82-39v-1c-13.32-27.828-52.86,2.414-71-5V257Zm170,0c26.55-.483,41.45,5.637,60,10,0.27,11.959,1.99,30.456-2,39h-9c-19.92-26.423-73.72-16.981-63,31,7.36,32.922,46.08,22.256,64,8l10,2v37c-56.07,16.64-110.8,14.24-122-46-3.62-19.487,1.21-40.314,9-52C1462.79,260.824,1479.62,260.491,1503,251Zm281,0c46.71-1.273,69,10.543,76,49,1.46,8.028,2.09,23.442-1,30h-87c8.8,50.938,69.27,4.773,87,12q-0.495,18-1,36c-39.28,8.825-81.83,18.144-114-7-26.27-20.53-25.32-80.09-1-102C1754.71,258.451,1767.46,257.771,1784,251Zm-908,4,47,1,24,69h1l23-70c10.808-.34,41.28-3.619,46,3,3.41,10.923-12.01,34.6-16,45q-24.5,63.993-49,128c-11.188.325-41.424,3.974-48-2l-2-2,19-46L874,258Zm407,0c0.27,13.2,2.49,34.35-2,44-17.49-.862-30.17-0.694-45,3,0.27,23.036,6.42,64.549-2,83-14.21.332-36.77,2.465-46-3-0.23-24.252-4.73-113.636,3-127,13.45-.272,35.13-2.586,45,2v12C1249.71,260.2,1258.86,254.8,1283,255Zm694,0c0.27,13.2,2.49,34.35-2,44-17.49-.862-30.17-0.694-45,3,0.27,23.036,6.42,64.549-2,83-14.21.332-36.77,2.465-46-3-0.23-24.252-4.73-113.636,3-127,13.45-.272,35.13-2.586,45,2v12C1943.71,260.2,1952.86,254.8,1977,255Zm-186,27q-4.995,1.5-10,3c-4.02,5.247-7.47,7.792-9,16h42v-3a43.492,43.492,0,0,0-7-13ZM812,327c-15.57-.234-26.585,3.116-34,11-0.293,8.534.968,11.519,4,16,13.723,2.387,19.944-.4,30-5V327Zm559,0c-15.57-.234-26.58,3.116-34,11-0.29,8.534.97,11.519,4,16,13.72,2.387,19.94-.4,30-5V327Z" transform="translate(-16.906 -138.906)"/>
</svg>
